<?xml version="1.0" encoding="UTF-8" standalone="no"?><!DOCTYPE svg PUBLIC "-//W3C//DTD SVG 1.1//EN" "http://www.w3.org/Graphics/SVG/1.1/DTD/svg11.dtd"><svg width="100%" height="100%" viewBox="0 0 467 117" version="1.1" xmlns="http://www.w3.org/2000/svg" xmlns:xlink="http://www.w3.org/1999/xlink" xml:space="preserve" xmlns:serif="http://www.serif.com/" style="fill-rule:evenodd;clip-rule:evenodd;stroke-linejoin:round;stroke-miterlimit:2;"><g><rect x="309.532" y="8.339" width="14.285" height="99.995" style="fill:#363636;"/><path d="M330.959,8.339l14.285,0l0,14.285l14.285,0l0,14.284l-14.285,0l0,71.425l-14.285,0l0,-99.994Z" style="fill:#363636;"/><path d="M209.537,108.3c-2.816,-1.188 -5.508,-2.748 -8.148,-4.386c-17.261,-10.714 -30.941,-26.99 -39.121,-45.596c-6.641,-15.105 -9.667,-31.598 -9.861,-48.231c-0.007,-0.581 -0.01,-1.162 -0.01,-1.743l14.285,-0.011l0,0.205c0.034,16.289 3.063,32.688 10.166,47.279c7.044,14.467 17.985,27.059 31.563,35.64c0.374,0.236 0.749,0.47 1.126,0.701l0,-83.819l14.285,0l0,99.994l-14.207,0l-0.078,-0.033Z" style="fill:#363636;"/><path d="M395.242,51.193c-2.404,0 -4.808,-0.003 -7.212,0c-3.881,0.019 -7.824,1.133 -11.166,3.211c-5.938,3.692 -9.929,10.316 -10.179,17.459c-0.009,0.255 -0.013,0.51 -0.013,0.765l0,35.705l-14.285,0l0,-35.719c0.018,-9.367 3.864,-18.639 10.559,-25.296c6.274,-6.239 14.875,-10.042 23.78,-10.383c0.455,-0.018 0.911,-0.026 1.367,-0.027l7.149,0l0,14.285Z" style="fill:#363636;"/><path d="M266.792,36.909c10.876,0.052 21.487,5.312 28.151,13.937c4.761,6.16 7.431,13.891 7.446,21.768l0,35.719l-14.285,0c0,-11.926 0.024,-23.853 0,-35.78c-0.035,-7.541 -4.322,-14.828 -10.917,-18.58c-4.978,-2.833 -11.136,-3.548 -16.647,-1.868c-9.092,2.772 -15.897,11.894 -15.247,21.866c0.493,7.554 5.384,14.639 12.289,17.979c2.826,1.367 5.961,2.093 9.1,2.098l14.28,0l0,14.285l-14.291,0c-9.043,-0.014 -17.928,-3.661 -24.464,-9.854c-6.503,-6.161 -10.623,-14.767 -11.176,-23.692c-0.612,-9.89 3.185,-19.925 10.109,-27.037c6.426,-6.598 15.424,-10.622 24.733,-10.832c0.306,-0.007 0.612,-0.01 0.919,-0.009Z" style="fill:#363636;"/><path d="M431.069,36.909c9.333,0.045 18.504,3.873 25.114,10.485c6.604,6.606 10.471,15.928 10.484,25.222l0,35.717l-14.285,0c0,-11.926 0.015,-23.853 -0.001,-35.78c-0.033,-6.287 -2.957,-12.4 -7.781,-16.409c-5.335,-4.436 -12.91,-6.087 -19.658,-4.077c-7.39,2.203 -13.392,8.619 -14.981,16.296c-1.274,6.162 0.421,12.82 4.481,17.746c3.924,4.761 9.911,7.814 16.106,7.935c0.138,0.003 0.275,0.004 0.412,0.004l14.279,0l0,14.285l-14.291,0c-9.173,-0.014 -18.201,-3.776 -24.773,-10.15c-6.259,-6.07 -10.254,-14.437 -10.852,-23.169c-0.681,-9.943 3.101,-20.083 10.096,-27.264c6.41,-6.582 15.313,-10.59 24.616,-10.83c0.345,-0.009 0.69,-0.012 1.034,-0.011Z" style="fill:#363636;"/></g><g><path d="M58.333,0c32.195,0 58.334,26.138 58.334,58.333c0,32.195 -26.139,58.334 -58.334,58.334c-32.195,0 -58.333,-26.139 -58.333,-58.334c0,-32.195 26.138,-58.333 58.333,-58.333Zm4.661,96.392c0.112,-0.154 0.282,-0.255 0.471,-0.279c0.188,-0.025 0.378,0.029 0.526,0.148c1.447,1.114 5.702,3.793 12.759,3.47c0.05,-0.002 0.096,0.025 0.116,0.07c0.022,0.044 0.014,0.097 -0.019,0.134c-1.226,1.313 -8.026,7.844 -16.37,1.223c-0.336,-0.268 -0.401,-0.752 -0.149,-1.099c0.683,-0.941 1.987,-2.733 2.666,-3.667Zm-16.577,-2.668c0.208,-0.221 0.546,-0.255 0.794,-0.081c0.978,0.685 3.339,2.345 4.367,3.067c0.125,0.089 0.207,0.227 0.224,0.379c0.016,0.153 -0.034,0.306 -0.138,0.419c-1.57,1.615 -7.581,6.741 -16.309,1.15c-0.07,-0.045 -0.105,-0.13 -0.085,-0.212c0.019,-0.082 0.089,-0.143 0.172,-0.151c6.527,-0.677 9.927,-3.524 10.975,-4.571Zm15.382,1.141c0.19,0.137 0.317,0.345 0.352,0.576c0.036,0.231 -0.021,0.467 -0.16,0.656c-0.682,0.929 -1.863,2.539 -2.509,3.42c-0.26,0.353 -0.741,0.457 -1.123,0.242c-1.034,-0.584 -3.009,-1.698 -4.034,-2.276c-0.17,-0.096 -0.293,-0.258 -0.342,-0.448c-0.048,-0.189 -0.017,-0.39 0.088,-0.556c0.784,-1.25 2.493,-3.973 2.984,-4.755c0.035,-0.056 0.091,-0.095 0.156,-0.107c0.064,-0.012 0.131,0.003 0.184,0.041c0.722,0.526 3.176,2.312 4.404,3.207Zm-8.374,0.628c-0.133,0.207 -0.346,0.349 -0.587,0.391c-0.243,0.043 -0.492,-0.017 -0.686,-0.166c-1.03,-0.784 -2.852,-2.172 -3.829,-2.916c-0.371,-0.282 -0.452,-0.806 -0.183,-1.187c0.658,-0.934 1.829,-2.595 2.449,-3.476c0.11,-0.156 0.277,-0.261 0.466,-0.293c0.187,-0.033 0.379,0.011 0.534,0.121c1.208,0.857 3.91,2.773 4.477,3.175c0.058,0.042 0.074,0.123 0.035,0.184c-0.343,0.534 -1.864,2.903 -2.676,4.167Zm7.588,-9.186c0.148,-0.2 0.375,-0.329 0.624,-0.352c0.248,-0.024 0.496,0.059 0.679,0.228c0.944,0.867 2.578,2.369 3.426,3.148c0.314,0.288 0.371,0.763 0.134,1.117c-0.584,0.876 -1.647,2.469 -2.226,3.337c-0.107,0.16 -0.273,0.27 -0.461,0.306c-0.188,0.036 -0.383,-0.005 -0.542,-0.113c-1.239,-0.854 -4.03,-2.776 -4.697,-3.235c-0.038,-0.027 -0.064,-0.067 -0.071,-0.113c-0.008,-0.046 0.003,-0.092 0.031,-0.129c0.443,-0.599 2.181,-2.948 3.103,-4.194Zm-8.511,0.745c-0.196,-0.145 -0.324,-0.365 -0.352,-0.607c-0.028,-0.243 0.045,-0.486 0.204,-0.672c0.793,-0.935 2.164,-2.548 2.9,-3.412c0.283,-0.335 0.774,-0.403 1.138,-0.159c0.887,0.591 2.476,1.651 3.332,2.223c0.324,0.216 0.416,0.654 0.205,0.982c-0.796,1.238 -2.596,4.038 -3.014,4.689c-0.023,0.035 -0.06,0.06 -0.1,0.067c-0.042,0.008 -0.085,-0.002 -0.119,-0.027c-0.581,-0.428 -2.955,-2.173 -4.194,-3.084Zm-9.754,-59.647c7.916,21.506 -10.258,18.561 -6.304,39.102c1.944,10.096 11.574,17.18 13.856,18.734c0.282,0.184 0.654,0.137 0.88,-0.11c0.698,-0.763 2.152,-2.355 2.948,-3.227c0.145,-0.159 0.22,-0.368 0.211,-0.583c-0.011,-0.214 -0.106,-0.415 -0.266,-0.559c-1.679,-1.592 -6.199,-6.72 -5.434,-15.13c0.674,-7.43 6.588,-8.491 3.922,-18.618c0,0 9.481,1.304 10.055,14.489c0,0 4.436,-3.577 3.679,-11.478c11.741,16.614 -0.282,31.675 -2.842,34.559c-0.255,0.274 -0.246,0.701 0.021,0.964c0.725,0.713 2.104,2.067 2.891,2.84c0.328,0.322 0.852,0.323 1.18,0.003c2.327,-2.355 10.827,-11.769 12.763,-25.402c2.25,-15.836 -4.597,-20.015 -10.25,-28.803c-6.823,-10.603 -2.888,-24.286 -2.888,-24.286c0,0 -11.539,8.337 -10.107,26.178c-4.135,-7.004 -9.29,-9.185 -14.315,-8.673Z" style="fill:#f47537;"/></g></svg>